<svg width="88" height="11" viewBox="0 0 88 11" fill="none" xmlns="http://www.w3.org/2000/svg">
<path d="M2.46 9.1H9.16C9.16 9.31333 9.15333 9.48 9.14 9.6C9.12667 9.72 9.09333 9.81333 9.04 9.88C8.98667 9.93333 8.9 9.96667 8.78 9.98C8.67333 9.99333 8.51333 10 8.3 10H0.4V9.04C0.413333 9.04 0.526667 8.92 0.74 8.68C0.953333 8.44 1.24 8.12 1.6 7.72C1.96 7.30667 2.35333 6.86 2.78 6.38C3.22 5.88667 3.66667 5.38667 4.12 4.88C4.57333 4.37333 4.99333 3.9 5.38 3.46C5.78 3.00667 6.12 2.62667 6.4 2.32C6.54667 2.17333 6.67333 2.04667 6.78 1.94C6.88667 1.82 6.96 1.74 7 1.7H0.76C0.76 1.47333 0.766667 1.3 0.78 1.18C0.793333 1.04667 0.84 0.953333 0.92 0.9C1.01333 0.833333 1.16 0.8 1.36 0.8H9.04C9.04 0.813333 9.03333 0.873333 9.02 0.979999C9.02 1.08667 9 1.22667 8.96 1.4C8.93333 1.56 8.87333 1.73333 8.78 1.92C8.68667 2.09333 8.55333 2.26 8.38 2.42L2.66 8.96L2.46 9.1ZM13.5698 10V6.26L10.1898 1.3L9.82984 0.8H11.8698L14.6698 5.18L17.5098 0.8H18.9098L18.4698 1.36L15.0898 6.26V9.3C15.1032 9.47333 15.0898 9.61333 15.0498 9.72C15.0098 9.81333 14.9432 9.88667 14.8498 9.94C14.7565 9.98 14.6098 10 14.4098 10H13.5698ZM20.6616 10C20.6616 8.65333 20.6616 7.30667 20.6616 5.96C20.6616 4.61333 20.6616 3.27333 20.6616 1.94C20.6616 1.48667 20.7416 1.18667 20.9016 1.04C21.0749 0.893333 21.3549 0.813333 21.7416 0.8C22.2616 0.786666 22.8349 0.779999 23.4616 0.779999C24.1016 0.779999 24.7349 0.779999 25.3616 0.779999C26.0016 0.779999 26.5616 0.793333 27.0416 0.82C27.5882 0.846666 28.0482 0.96 28.4216 1.16C28.8082 1.34667 29.0949 1.63333 29.2816 2.02C29.4816 2.39333 29.5816 2.87333 29.5816 3.46C29.5816 4.12667 29.4616 4.68 29.2216 5.12C28.9949 5.56 28.6682 5.88 28.2416 6.08C27.8282 6.28 27.3282 6.38 26.7416 6.38C26.0749 6.38 25.3882 6.38 24.6816 6.38C23.9882 6.38 23.2949 6.38 22.6016 6.38C22.6016 6.15333 22.6016 5.98 22.6016 5.86C22.6149 5.74 22.6416 5.65333 22.6816 5.6C22.7349 5.54667 22.8216 5.52 22.9416 5.52C23.1549 5.52 23.4482 5.52 23.8216 5.52C24.2082 5.52 24.6149 5.52 25.0416 5.52C25.4682 5.52 25.8549 5.52 26.2016 5.52C26.5216 5.52 26.8149 5.46 27.0816 5.34C27.3616 5.22 27.5816 5.00667 27.7416 4.7C27.9149 4.39333 28.0016 3.97333 28.0016 3.44C28.0016 2.92 27.8949 2.51333 27.6816 2.22C27.4682 1.91333 27.1149 1.74667 26.6216 1.72C26.2082 1.68 25.7482 1.66 25.2416 1.66C24.7349 1.64667 24.2549 1.64667 23.8016 1.66C23.3616 1.66 22.9882 1.66667 22.6816 1.68C22.6149 1.68 22.5149 1.71333 22.3816 1.78C22.2616 1.83333 22.2016 1.96 22.2016 2.16C22.2016 3.46667 22.2016 4.77333 22.2016 6.08C22.2016 7.37333 22.2016 8.68 22.2016 10H20.6616ZM31.953 10V1.38C31.953 1.12667 31.993 0.966666 32.073 0.9C32.1663 0.833333 32.3196 0.8 32.533 0.8H33.493V4.8H39.553V0.8H41.093V9.38C41.093 9.63333 41.0596 9.8 40.993 9.88C40.9263 9.96 40.7663 10 40.513 10H39.553V5.7H33.493V10H31.953ZM44.4139 10V1.44C44.4139 1.2 44.4472 1.03333 44.5139 0.94C44.5806 0.846666 44.7272 0.8 44.9539 0.8H52.8939V1.68H45.9539V4.74H52.3139V5.62H45.9539V9.12H52.8939V10H44.4139ZM60.8923 6.22C60.8923 6.22 60.7057 6.22 60.3323 6.22C59.959 6.22 59.459 6.22 58.8323 6.22C58.2057 6.22 57.5123 6.22667 56.7523 6.24V10H55.2123V1.84C55.2123 1.45333 55.2923 1.18667 55.4523 1.04C55.6257 0.893333 55.9057 0.813333 56.2923 0.8C56.4923 0.786666 56.7523 0.779999 57.0723 0.779999C57.4057 0.779999 57.7723 0.779999 58.1723 0.779999C58.5723 0.766666 58.979 0.76 59.3923 0.76C59.819 0.76 60.2257 0.76 60.6123 0.76C61.0123 0.76 61.3657 0.766666 61.6723 0.779999C61.979 0.793333 62.219 0.806666 62.3923 0.82C63.0857 0.886666 63.5923 1.12 63.9123 1.52C64.2323 1.90667 64.3923 2.48667 64.3923 3.26C64.3923 3.87333 64.3057 4.36 64.1323 4.72C63.9723 5.08 63.7257 5.34667 63.3923 5.52C63.3523 5.56 63.2857 5.59333 63.1923 5.62C63.1123 5.63333 63.0257 5.64 62.9323 5.64V5.68C62.9857 5.68 63.0457 5.68 63.1123 5.68C63.179 5.68 63.2323 5.68 63.2723 5.68C63.779 5.77333 64.0857 5.98 64.1923 6.3C64.299 6.60667 64.3523 6.92 64.3523 7.24V9.52C64.3523 9.65333 64.3657 9.76667 64.3923 9.86C64.419 9.94 64.439 9.98667 64.4523 10H63.3723C63.1857 10 63.039 9.96667 62.9323 9.9C62.8257 9.83333 62.7723 9.67333 62.7723 9.42V7.3C62.7723 6.88667 62.679 6.60667 62.4923 6.46C62.319 6.3 62.0057 6.22 61.5523 6.22H60.8923ZM56.7523 5.38C56.939 5.38 57.2323 5.38667 57.6323 5.4C58.0323 5.4 58.4657 5.4 58.9323 5.4C59.4123 5.4 59.8523 5.4 60.2523 5.4C60.6523 5.4 60.9457 5.4 61.1323 5.4C61.5723 5.4 61.959 5.26667 62.2923 5C62.639 4.72 62.8123 4.20667 62.8123 3.46C62.8123 2.95333 62.7123 2.55333 62.5123 2.26C62.3257 1.95333 62.019 1.77333 61.5923 1.72C61.3123 1.68 60.9657 1.66 60.5523 1.66C60.139 1.64667 59.7123 1.64667 59.2723 1.66C58.8323 1.66 58.4257 1.66667 58.0523 1.68C57.679 1.68 57.399 1.68 57.2123 1.68C57.1723 1.68 57.0857 1.70667 56.9523 1.76C56.819 1.8 56.7523 1.93333 56.7523 2.16V5.38ZM71.5059 10.14C70.7059 10.14 69.9993 10.08 69.3859 9.96C68.7726 9.84 68.2459 9.62 67.8059 9.3C67.3793 8.96667 67.0526 8.48667 66.8259 7.86C66.5993 7.23333 66.4859 6.40667 66.4859 5.38C66.4859 4.34 66.6059 3.50667 66.8459 2.88C67.0993 2.24 67.4526 1.76 67.9059 1.44C68.3593 1.12 68.8993 0.906666 69.5259 0.8C70.1659 0.693333 70.8793 0.64 71.6659 0.64C72.4526 0.64 73.1526 0.7 73.7659 0.82C74.3793 0.926666 74.8993 1.14667 75.3259 1.48C75.7659 1.8 76.0993 2.27333 76.3259 2.9C76.5526 3.52667 76.6659 4.35333 76.6659 5.38C76.6659 6.43333 76.5393 7.27333 76.2859 7.9C76.0459 8.52667 75.6993 9.00667 75.2459 9.34C74.8059 9.66 74.2659 9.87333 73.6259 9.98C72.9993 10.0867 72.2926 10.14 71.5059 10.14ZM71.5659 9.28C72.1259 9.28 72.6259 9.23333 73.0659 9.14C73.5059 9.03333 73.8726 8.84667 74.1659 8.58C74.4726 8.31333 74.6993 7.92667 74.8459 7.42C75.0059 6.9 75.0859 6.22 75.0859 5.38C75.0859 4.55333 75.0059 3.88667 74.8459 3.38C74.6993 2.86 74.4726 2.46667 74.1659 2.2C73.8726 1.92 73.5059 1.73333 73.0659 1.64C72.6259 1.54667 72.1259 1.5 71.5659 1.5C70.9926 1.5 70.4859 1.54667 70.0459 1.64C69.6193 1.73333 69.2593 1.92 68.9659 2.2C68.6726 2.46667 68.4459 2.86 68.2859 3.38C68.1393 3.88667 68.0659 4.55333 68.0659 5.38C68.0659 6.22 68.1393 6.9 68.2859 7.42C68.4459 7.92667 68.6726 8.31333 68.9659 8.58C69.2593 8.84667 69.6193 9.03333 70.0459 9.14C70.4859 9.23333 70.9926 9.28 71.5659 9.28ZM78.5986 8.6C78.8786 8.78667 79.2386 8.92667 79.6786 9.02C80.1319 9.1 80.5986 9.15333 81.0786 9.18C81.5719 9.19333 81.9986 9.2 82.3586 9.2C82.4919 9.2 82.6453 9.2 82.8186 9.2C82.9919 9.2 83.1453 9.19333 83.2786 9.18C83.8119 9.16667 84.2786 9.10667 84.6786 9C85.0786 8.88 85.3919 8.68667 85.6186 8.42C85.8453 8.14 85.9586 7.74667 85.9586 7.24C85.9586 6.62667 85.7986 6.22667 85.4786 6.04C85.1586 5.85333 84.6919 5.76 84.0786 5.76C83.8786 5.76 83.6653 5.76 83.4386 5.76C83.2119 5.76 82.9719 5.76 82.7186 5.76C82.4653 5.76 82.1719 5.76 81.8386 5.76C81.4653 5.76 81.0853 5.74667 80.6986 5.72C80.3119 5.68 79.9586 5.59333 79.6386 5.46C79.3186 5.31333 79.0653 5.09333 78.8786 4.8C78.6919 4.49333 78.5986 4.06 78.5986 3.5C78.5986 2.84667 78.7119 2.33333 78.9386 1.96C79.1786 1.58667 79.5119 1.31333 79.9386 1.14C80.3653 0.966666 80.8519 0.853333 81.3986 0.8C81.9586 0.746666 82.5519 0.72 83.1786 0.72C83.5519 0.72 83.9719 0.726666 84.4386 0.739999C84.9186 0.753333 85.3653 0.786666 85.7786 0.839999C86.2053 0.893333 86.5386 0.986666 86.7786 1.12C86.9919 1.14667 87.1519 1.21333 87.2586 1.32C87.3786 1.42667 87.4386 1.56 87.4386 1.72C87.4386 1.77333 87.4386 1.84 87.4386 1.92C87.4386 1.98667 87.4386 2.05333 87.4386 2.12C87.4386 2.18667 87.4386 2.23333 87.4386 2.26C87.3186 2.12667 87.1186 2.02 86.8386 1.94C86.5586 1.86 86.2386 1.8 85.8786 1.76C85.5319 1.70667 85.1919 1.67333 84.8586 1.66C84.5253 1.63333 84.2519 1.62 84.0386 1.62H82.8586C82.3786 1.62 81.9319 1.66 81.5186 1.74C81.1053 1.82 80.7719 1.98667 80.5186 2.24C80.2786 2.48 80.1586 2.86667 80.1586 3.4C80.1586 3.81333 80.2386 4.12 80.3986 4.32C80.5719 4.52 80.8119 4.65333 81.1186 4.72C81.4253 4.77333 81.7919 4.8 82.2186 4.8C82.7386 4.8 83.1986 4.8 83.5986 4.8C83.9986 4.8 84.3253 4.8 84.5786 4.8C85.1653 4.8 85.6853 4.85333 86.1386 4.96C86.5919 5.05333 86.9453 5.27333 87.1986 5.62C87.4519 5.95333 87.5786 6.48 87.5786 7.2C87.5786 7.90667 87.4186 8.46667 87.0986 8.88C86.7919 9.29333 86.3653 9.58667 85.8186 9.76C85.2853 9.93333 84.6719 10.04 83.9786 10.08C83.6453 10.0933 83.3253 10.1 83.0186 10.1C82.7119 10.1133 82.3919 10.1133 82.0586 10.1C81.7519 10.1 81.3986 10.0867 80.9986 10.06C80.5986 10.0333 80.2119 9.99333 79.8386 9.94C79.4786 9.87333 79.1786 9.78 78.9386 9.66C78.7119 9.52667 78.5986 9.35333 78.5986 9.14V8.6Z" fill="white"/>
</svg>
